# xmcd
#
# Track frame offsets:
#	150
#	12740
#	28515
#	41347
#	54212
#	73045
#	83772
#	97745
#	110847
#	128265
#
# Disc length: 1929 seconds
#
# Revision: 1
# Processed by: cddbd v1.5.1PL0 Copyright (c) Steve Scherf et al.
# Submitted via: audiograbber 1.83.01
#
DISCID=7207870a
DTITLE=Various Artist - Country Christmas
DYEAR=2002
DGENRE=Holidays
TTITLE0=Steve Wariner - Let It Snow, Let It Snow, Let It Snow
TTITLE1=Eddie Rabbitt - Have Yourself A Merry Little Christmas
TTITLE2=Juice Newton - Christmas Needs Love To Be Christmas
TTITLE3=Suzy Bogguss - I Heard The Bells On Christmas Day
TTITLE4=Billy Dean - White Christmas
TTITLE5=Chris LeDoux - Santa Claus Is Coming ToTown
TTITLE6=Sawyer Brown - Please Come Hoome For Christmas
TTITLE7=John Berry - I'll Be HOme FOr Christmas
TTITLE8=Tany Tucker - Winter Wonderland
TTITLE9=Ronie Milsap - The Christmas Song (Merry Christmas To You)
EXTD=
EXTT0=
EXTT1=
EXTT2=
EXTT3=
EXTT4=
EXTT5=
EXTT6=
EXTT7=
EXTT8=
EXTT9=
PLAYORDER=
